<mxfile host="app.diagrams.net" agent="Mozilla/5.0 (Macintosh; Intel Mac OS X 10_15_7) AppleWebKit/537.36 (KHTML, like Gecko) Chrome/131.0.0.0 Safari/537.36" version="24.8.6">
  <diagram name="Page-1" id="XskubEJi0R3WrxgRnHOm">
    <mxGraphModel dx="2020" dy="1042" grid="1" gridSize="10" guides="1" tooltips="1" connect="1" arrows="1" fold="1" page="1" pageScale="1" pageWidth="850" pageHeight="1100" math="0" shadow="0">
      <root>
        <mxCell id="0" />
        <mxCell id="1" parent="0" />
        <mxCell id="0LMOfcOHEF7ToOQz5EPv-5" style="edgeStyle=orthogonalEdgeStyle;rounded=0;orthogonalLoop=1;jettySize=auto;html=1;exitX=0.5;exitY=1;exitDx=0;exitDy=0;fontSize=14;" edge="1" parent="1" source="0LMOfcOHEF7ToOQz5EPv-1" target="0LMOfcOHEF7ToOQz5EPv-4">
          <mxGeometry relative="1" as="geometry" />
        </mxCell>
        <mxCell id="0LMOfcOHEF7ToOQz5EPv-1" value="user request" style="rounded=1;whiteSpace=wrap;html=1;fontSize=14;" vertex="1" parent="1">
          <mxGeometry x="20" y="20" width="145" height="70" as="geometry" />
        </mxCell>
        <mxCell id="0LMOfcOHEF7ToOQz5EPv-38" style="edgeStyle=orthogonalEdgeStyle;rounded=0;orthogonalLoop=1;jettySize=auto;html=1;entryX=0.5;entryY=0;entryDx=0;entryDy=0;" edge="1" parent="1" source="0LMOfcOHEF7ToOQz5EPv-2" target="0LMOfcOHEF7ToOQz5EPv-23">
          <mxGeometry relative="1" as="geometry" />
        </mxCell>
        <mxCell id="0LMOfcOHEF7ToOQz5EPv-2" value="request authentication&amp;nbsp;" style="rounded=1;whiteSpace=wrap;html=1;fontSize=14;" vertex="1" parent="1">
          <mxGeometry x="25" y="250" width="145" height="80" as="geometry" />
        </mxCell>
        <mxCell id="0LMOfcOHEF7ToOQz5EPv-6" style="edgeStyle=orthogonalEdgeStyle;rounded=0;orthogonalLoop=1;jettySize=auto;html=1;fontSize=14;" edge="1" parent="1" source="0LMOfcOHEF7ToOQz5EPv-4" target="0LMOfcOHEF7ToOQz5EPv-2">
          <mxGeometry relative="1" as="geometry" />
        </mxCell>
        <mxCell id="0LMOfcOHEF7ToOQz5EPv-4" value="access api gateway" style="rounded=1;whiteSpace=wrap;html=1;fontSize=14;" vertex="1" parent="1">
          <mxGeometry x="20" y="130" width="145" height="80" as="geometry" />
        </mxCell>
        <mxCell id="0LMOfcOHEF7ToOQz5EPv-7" value="Check access authen" style="rhombus;whiteSpace=wrap;html=1;fontSize=14;" vertex="1" parent="1">
          <mxGeometry x="37.5" y="490" width="120" height="110" as="geometry" />
        </mxCell>
        <mxCell id="0LMOfcOHEF7ToOQz5EPv-8" value="" style="endArrow=open;endFill=1;endSize=12;html=1;rounded=0;fontSize=14;" edge="1" parent="1">
          <mxGeometry width="160" relative="1" as="geometry">
            <mxPoint x="157.5" y="544.5" as="sourcePoint" />
            <mxPoint x="252.5" y="545" as="targetPoint" />
          </mxGeometry>
        </mxCell>
        <mxCell id="0LMOfcOHEF7ToOQz5EPv-10" style="edgeStyle=orthogonalEdgeStyle;rounded=0;orthogonalLoop=1;jettySize=auto;html=1;entryX=0.5;entryY=0;entryDx=0;entryDy=0;fontSize=14;" edge="1" parent="1" target="0LMOfcOHEF7ToOQz5EPv-7">
          <mxGeometry relative="1" as="geometry">
            <mxPoint x="97.5" y="440" as="sourcePoint" />
            <mxPoint x="97.5" y="480" as="targetPoint" />
          </mxGeometry>
        </mxCell>
        <mxCell id="0LMOfcOHEF7ToOQz5EPv-11" value="no" style="text;html=1;align=center;verticalAlign=middle;resizable=0;points=[];autosize=1;strokeColor=none;fillColor=none;fontSize=14;" vertex="1" parent="1">
          <mxGeometry x="167.5" y="508" width="40" height="30" as="geometry" />
        </mxCell>
        <mxCell id="0LMOfcOHEF7ToOQz5EPv-12" value="yes" style="text;html=1;align=center;verticalAlign=middle;resizable=0;points=[];autosize=1;strokeColor=none;fillColor=none;fontSize=14;" vertex="1" parent="1">
          <mxGeometry x="35" y="600" width="50" height="30" as="geometry" />
        </mxCell>
        <mxCell id="0LMOfcOHEF7ToOQz5EPv-42" style="edgeStyle=orthogonalEdgeStyle;rounded=0;orthogonalLoop=1;jettySize=auto;html=1;" edge="1" parent="1" source="0LMOfcOHEF7ToOQz5EPv-13" target="0LMOfcOHEF7ToOQz5EPv-39">
          <mxGeometry relative="1" as="geometry" />
        </mxCell>
        <mxCell id="0LMOfcOHEF7ToOQz5EPv-13" value="generate token" style="rounded=1;whiteSpace=wrap;html=1;fontSize=14;" vertex="1" parent="1">
          <mxGeometry x="27.5" y="650" width="160" height="70" as="geometry" />
        </mxCell>
        <mxCell id="0LMOfcOHEF7ToOQz5EPv-14" value="&lt;p style=&quot;line-height: 120%; font-size: 14px;&quot;&gt;Unauthorized&lt;/p&gt;" style="text;html=1;align=center;verticalAlign=middle;resizable=0;points=[];autosize=1;strokeColor=none;fillColor=none;fontSize=14;" vertex="1" parent="1">
          <mxGeometry x="262.5" y="515" width="110" height="60" as="geometry" />
        </mxCell>
        <mxCell id="0LMOfcOHEF7ToOQz5EPv-15" value="User" style="rounded=1;whiteSpace=wrap;html=1;fontSize=14;" vertex="1" parent="1">
          <mxGeometry x="60" y="2370" width="140" height="70" as="geometry" />
        </mxCell>
        <mxCell id="0LMOfcOHEF7ToOQz5EPv-16" value="User" style="rounded=1;whiteSpace=wrap;html=1;fontSize=14;" vertex="1" parent="1">
          <mxGeometry x="50" y="1890" width="140" height="70" as="geometry" />
        </mxCell>
        <mxCell id="0LMOfcOHEF7ToOQz5EPv-17" value="API Gateway" style="rounded=1;whiteSpace=wrap;html=1;fontSize=14;" vertex="1" parent="1">
          <mxGeometry x="295" y="1890" width="140" height="70" as="geometry" />
        </mxCell>
        <mxCell id="0LMOfcOHEF7ToOQz5EPv-18" value="API Gateway" style="rounded=1;whiteSpace=wrap;html=1;fontSize=14;" vertex="1" parent="1">
          <mxGeometry x="305" y="2380" width="140" height="70" as="geometry" />
        </mxCell>
        <mxCell id="0LMOfcOHEF7ToOQz5EPv-19" value="" style="endArrow=none;html=1;rounded=0;entryX=0.5;entryY=1;entryDx=0;entryDy=0;" edge="1" parent="1" target="0LMOfcOHEF7ToOQz5EPv-16">
          <mxGeometry width="50" height="50" relative="1" as="geometry">
            <mxPoint x="120" y="2360" as="sourcePoint" />
            <mxPoint x="145" y="1850" as="targetPoint" />
          </mxGeometry>
        </mxCell>
        <mxCell id="0LMOfcOHEF7ToOQz5EPv-20" value="" style="endArrow=none;html=1;rounded=0;entryX=0.5;entryY=1;entryDx=0;entryDy=0;" edge="1" parent="1" target="0LMOfcOHEF7ToOQz5EPv-17">
          <mxGeometry width="50" height="50" relative="1" as="geometry">
            <mxPoint x="365" y="2370" as="sourcePoint" />
            <mxPoint x="138" y="1660" as="targetPoint" />
          </mxGeometry>
        </mxCell>
        <mxCell id="0LMOfcOHEF7ToOQz5EPv-28" style="edgeStyle=orthogonalEdgeStyle;rounded=0;orthogonalLoop=1;jettySize=auto;html=1;" edge="1" parent="1">
          <mxGeometry relative="1" as="geometry">
            <mxPoint x="365" y="2025" as="targetPoint" />
            <mxPoint x="295" y="2025" as="sourcePoint" />
          </mxGeometry>
        </mxCell>
        <mxCell id="0LMOfcOHEF7ToOQz5EPv-22" value="request resource" style="text;html=1;align=center;verticalAlign=middle;resizable=0;points=[];autosize=1;strokeColor=none;fillColor=none;" vertex="1" parent="1">
          <mxGeometry x="177.5" y="2010" width="110" height="30" as="geometry" />
        </mxCell>
        <mxCell id="0LMOfcOHEF7ToOQz5EPv-23" value="verify authentication" style="rounded=1;whiteSpace=wrap;html=1;fontSize=14;" vertex="1" parent="1">
          <mxGeometry x="28.75" y="370" width="142.5" height="70" as="geometry" />
        </mxCell>
        <mxCell id="0LMOfcOHEF7ToOQz5EPv-29" style="edgeStyle=orthogonalEdgeStyle;rounded=0;orthogonalLoop=1;jettySize=auto;html=1;" edge="1" parent="1" source="0LMOfcOHEF7ToOQz5EPv-24">
          <mxGeometry relative="1" as="geometry">
            <mxPoint x="665" y="2025" as="targetPoint" />
          </mxGeometry>
        </mxCell>
        <mxCell id="0LMOfcOHEF7ToOQz5EPv-24" value="request authentication" style="text;html=1;align=center;verticalAlign=middle;resizable=0;points=[];autosize=1;strokeColor=none;fillColor=none;" vertex="1" parent="1">
          <mxGeometry x="455" y="2010" width="140" height="30" as="geometry" />
        </mxCell>
        <mxCell id="0LMOfcOHEF7ToOQz5EPv-25" value="Authen &amp;amp; Autho Service" style="rounded=1;whiteSpace=wrap;html=1;fontSize=14;" vertex="1" parent="1">
          <mxGeometry x="595" y="1890" width="140" height="70" as="geometry" />
        </mxCell>
        <mxCell id="0LMOfcOHEF7ToOQz5EPv-26" value="Authen &amp;amp; Autho Service" style="rounded=1;whiteSpace=wrap;html=1;fontSize=14;" vertex="1" parent="1">
          <mxGeometry x="595" y="2380" width="140" height="70" as="geometry" />
        </mxCell>
        <mxCell id="0LMOfcOHEF7ToOQz5EPv-27" value="" style="endArrow=none;html=1;rounded=0;entryX=0.5;entryY=1;entryDx=0;entryDy=0;" edge="1" parent="1">
          <mxGeometry width="50" height="50" relative="1" as="geometry">
            <mxPoint x="664.5" y="2370" as="sourcePoint" />
            <mxPoint x="664.5" y="1960" as="targetPoint" />
          </mxGeometry>
        </mxCell>
        <mxCell id="0LMOfcOHEF7ToOQz5EPv-30" value="" style="endArrow=none;html=1;rounded=0;" edge="1" parent="1">
          <mxGeometry width="50" height="50" relative="1" as="geometry">
            <mxPoint x="125" y="2024.5" as="sourcePoint" />
            <mxPoint x="167.5" y="2024.5" as="targetPoint" />
          </mxGeometry>
        </mxCell>
        <mxCell id="0LMOfcOHEF7ToOQz5EPv-31" value="" style="endArrow=none;html=1;rounded=0;" edge="1" parent="1">
          <mxGeometry width="50" height="50" relative="1" as="geometry">
            <mxPoint x="392.5" y="2024.5" as="sourcePoint" />
            <mxPoint x="435" y="2024.5" as="targetPoint" />
          </mxGeometry>
        </mxCell>
        <mxCell id="0LMOfcOHEF7ToOQz5EPv-32" value="verify authentication" style="text;html=1;align=center;verticalAlign=middle;resizable=0;points=[];autosize=1;strokeColor=none;fillColor=none;" vertex="1" parent="1">
          <mxGeometry x="460" y="2060" width="130" height="30" as="geometry" />
        </mxCell>
        <mxCell id="0LMOfcOHEF7ToOQz5EPv-34" value="" style="endArrow=classic;html=1;rounded=0;" edge="1" parent="1">
          <mxGeometry width="50" height="50" relative="1" as="geometry">
            <mxPoint x="660" y="2080" as="sourcePoint" />
            <mxPoint x="600" y="2080" as="targetPoint" />
          </mxGeometry>
        </mxCell>
        <mxCell id="0LMOfcOHEF7ToOQz5EPv-35" value="" style="endArrow=classic;html=1;rounded=0;" edge="1" parent="1">
          <mxGeometry width="50" height="50" relative="1" as="geometry">
            <mxPoint x="445" y="2074.5" as="sourcePoint" />
            <mxPoint x="385" y="2074.5" as="targetPoint" />
          </mxGeometry>
        </mxCell>
        <mxCell id="0LMOfcOHEF7ToOQz5EPv-36" value="Other service (XT, Atlantis, ...)" style="rounded=1;whiteSpace=wrap;html=1;fontSize=14;" vertex="1" parent="1">
          <mxGeometry x="480" y="2550" width="140" height="70" as="geometry" />
        </mxCell>
        <mxCell id="0LMOfcOHEF7ToOQz5EPv-39" value="request relevant service (eg: xt services, atlantis service, ...)" style="rounded=1;whiteSpace=wrap;html=1;fontSize=14;" vertex="1" parent="1">
          <mxGeometry x="27.5" y="760" width="160" height="80" as="geometry" />
        </mxCell>
        <mxCell id="0LMOfcOHEF7ToOQz5EPv-41" style="edgeStyle=orthogonalEdgeStyle;rounded=0;orthogonalLoop=1;jettySize=auto;html=1;entryX=0.441;entryY=0.013;entryDx=0;entryDy=0;entryPerimeter=0;" edge="1" parent="1" source="0LMOfcOHEF7ToOQz5EPv-7" target="0LMOfcOHEF7ToOQz5EPv-13">
          <mxGeometry relative="1" as="geometry" />
        </mxCell>
      </root>
    </mxGraphModel>
  </diagram>
</mxfile>
